<svg width="567" height="585" viewBox="0 0 567 585" fill="none" xmlns="http://www.w3.org/2000/svg">
<g clip-path="url(#clip0_33:366)">
<path d="M140.483 203.623C130.733 174.469 100.626 158.266 80.8193 164.894C61.0129 171.523 46.7124 202.587 56.4619 231.741C65.4863 258.727 92.8315 274.306 111.643 271.525C111.507 271.761 111.418 272.021 111.38 272.291L110.805 277.09C110.761 277.456 110.811 277.827 110.951 278.168C111.091 278.509 111.315 278.808 111.603 279.038C111.891 279.267 112.233 279.42 112.597 279.48C112.96 279.54 113.333 279.507 113.68 279.382L123.37 275.906C123.716 275.782 124.026 275.571 124.268 275.294C124.51 275.016 124.678 274.681 124.754 274.321C124.831 273.96 124.814 273.586 124.705 273.234C124.597 272.882 124.4 272.564 124.134 272.309L120.641 268.969C120.517 268.855 120.379 268.757 120.232 268.675C137.01 259.63 149.527 230.668 140.483 203.623Z" fill="#F2F2F2"/>
<path d="M105.188 182.174C113.285 186.354 119.468 193.485 122.462 202.093C125.455 210.701 125.031 220.131 121.276 228.435C120.437 230.345 123.521 231.349 124.354 229.452C128.296 220.467 128.697 210.322 125.476 201.054C122.255 191.785 115.65 184.077 106.986 179.476C105.158 178.506 103.346 181.198 105.188 182.174Z" fill="white"/>
<path d="M535.206 161.127C525.456 131.973 495.349 115.77 475.542 122.398C455.736 129.026 441.435 160.091 451.185 189.245C460.209 216.23 487.554 231.809 506.366 229.029C506.23 229.265 506.141 229.525 506.103 229.794L505.527 234.594C505.484 234.96 505.534 235.33 505.674 235.671C505.814 236.012 506.038 236.312 506.326 236.541C506.614 236.771 506.956 236.923 507.32 236.984C507.683 237.044 508.056 237.01 508.402 236.886L518.092 233.41C518.439 233.286 518.748 233.075 518.991 232.797C519.233 232.52 519.4 232.185 519.477 231.824C519.554 231.464 519.537 231.09 519.428 230.738C519.32 230.386 519.123 230.067 518.857 229.813L515.364 226.473C515.239 226.359 515.102 226.26 514.955 226.179C531.733 217.134 544.25 188.171 535.206 161.127Z" fill="#F2F2F2"/>
<path d="M499.911 139.678C508.007 143.858 514.191 150.988 517.184 159.597C520.178 168.205 519.753 177.635 515.998 185.939C515.16 187.849 518.243 188.853 519.076 186.956C523.019 177.97 523.42 167.826 520.199 158.557C516.978 149.289 510.373 141.581 501.709 136.979C499.88 136.01 498.069 138.701 499.911 139.678Z" fill="white"/>
<path d="M305.983 114.204C296.234 85.05 266.126 68.8467 246.32 75.4749C226.513 82.1032 212.213 113.168 221.962 142.322C230.987 169.307 258.332 184.886 277.143 182.106C277.008 182.342 276.918 182.602 276.88 182.871L276.305 187.671C276.261 188.036 276.312 188.407 276.451 188.748C276.591 189.089 276.816 189.389 277.104 189.618C277.392 189.848 277.734 190 278.097 190.06C278.46 190.121 278.833 190.087 279.18 189.963L288.87 186.487C289.217 186.363 289.526 186.152 289.768 185.874C290.011 185.597 290.178 185.262 290.255 184.901C290.331 184.541 290.314 184.167 290.206 183.815C290.097 183.463 289.9 183.144 289.634 182.889L286.141 179.549C286.017 179.436 285.88 179.337 285.732 179.256C302.51 170.211 315.027 141.248 305.983 114.204Z" fill="#F2F2F2"/>
<path d="M270.688 92.7549C278.785 96.935 284.968 104.065 287.962 112.674C290.956 121.282 290.531 130.712 286.776 139.016C285.937 140.925 289.021 141.93 289.854 140.033C293.797 131.047 294.198 120.903 290.977 111.634C287.756 102.365 281.151 94.6575 272.487 90.0561C270.658 89.0867 268.846 91.7783 270.688 92.7549Z" fill="white"/>
<path d="M257.085 254.488C258.368 254.488 259.408 253.447 259.408 252.164C259.408 250.881 258.368 249.841 257.085 249.841C255.802 249.841 254.763 250.881 254.763 252.164C254.763 253.447 255.802 254.488 257.085 254.488Z" fill="#CCCCCC"/>
<path d="M252.135 347.695C254.669 347.695 256.723 345.64 256.723 343.105C256.723 340.57 254.669 338.515 252.135 338.515C249.601 338.515 247.546 340.57 247.546 343.105C247.546 345.64 249.601 347.695 252.135 347.695Z" fill="#CCCCCC"/>
<path d="M175.318 330.021C176.782 330.021 177.969 328.834 177.969 327.369C177.969 325.904 176.782 324.716 175.318 324.716C173.854 324.716 172.667 325.904 172.667 327.369C172.667 328.834 173.854 330.021 175.318 330.021Z" fill="#CCCCCC"/>
<path d="M215.598 286.592C217.184 286.592 218.469 285.306 218.469 283.719C218.469 282.133 217.184 280.847 215.598 280.847C214.012 280.847 212.727 282.133 212.727 283.719C212.727 285.306 214.012 286.592 215.598 286.592Z" fill="#CCCCCC"/>
<path d="M356.888 454.76C358.171 454.76 359.211 453.719 359.211 452.436C359.211 451.153 358.171 450.113 356.888 450.113C355.605 450.113 354.565 451.153 354.565 452.436C354.565 453.719 355.605 454.76 356.888 454.76Z" fill="#CCCCCC"/>
<path d="M280.82 406.982C283.354 406.982 285.409 404.927 285.409 402.392C285.409 399.857 283.354 397.802 280.82 397.802C278.286 397.802 276.232 399.857 276.232 402.392C276.232 404.927 278.286 406.982 280.82 406.982Z" fill="#CCCCCC"/>
<path d="M333.071 346.559C334.535 346.559 335.722 345.371 335.722 343.907C335.722 342.442 334.535 341.254 333.071 341.254C331.606 341.254 330.419 342.442 330.419 343.907C330.419 345.371 331.606 346.559 333.071 346.559Z" fill="#CCCCCC"/>
<path d="M350.507 403.565C352.093 403.565 353.378 402.279 353.378 400.693C353.378 399.106 352.093 397.82 350.507 397.82C348.921 397.82 347.635 399.106 347.635 400.693C347.635 402.279 348.921 403.565 350.507 403.565Z" fill="#CCCCCC"/>
<path d="M505.163 551.501C507.697 549.379 504.273 541.115 497.516 533.042C490.759 524.968 483.228 520.144 480.694 522.266C478.161 524.388 481.584 532.653 488.341 540.726C495.098 548.799 502.63 553.623 505.163 551.501Z" fill="#2F2E41"/>
<path d="M452.388 568.392C473.439 568.392 490.504 551.321 490.504 530.263C490.504 509.205 473.439 492.134 452.388 492.134C431.337 492.134 414.272 509.205 414.272 530.263C414.272 551.321 431.337 568.392 452.388 568.392Z" fill="#2F2E41"/>
<path d="M468.521 560.187H456.942V580.941H468.521V560.187Z" fill="#2F2E41"/>
<path d="M445.362 560.187H433.783V580.941H445.362V560.187Z" fill="#2F2E41"/>
<path d="M458.872 584.802C464.201 584.802 468.521 583.182 468.521 581.183C468.521 579.183 464.201 577.563 458.872 577.563C453.542 577.563 449.222 579.183 449.222 581.183C449.222 583.182 453.542 584.802 458.872 584.802Z" fill="#2F2E41"/>
<path d="M435.713 584.32C441.042 584.32 445.362 582.699 445.362 580.7C445.362 578.701 441.042 577.08 435.713 577.08C430.383 577.08 426.063 578.701 426.063 580.7C426.063 582.699 430.383 584.32 435.713 584.32Z" fill="#2F2E41"/>
<path d="M440.42 482.334C443.823 468.622 458.847 460.553 473.975 464.311C489.104 468.069 498.61 482.231 495.206 495.942C491.803 509.653 480.511 509.698 465.382 505.94C450.254 502.182 437.016 496.045 440.42 482.334Z" fill="#E6E6E6"/>
<path d="M426.676 520.741C428.092 517.754 421.531 511.675 412.021 507.163C402.511 502.651 393.654 501.415 392.238 504.401C390.822 507.388 397.383 513.466 406.893 517.978C416.403 522.49 425.26 523.727 426.676 520.741Z" fill="#2F2E41"/>
<path d="M446.69 534.93C453.708 534.93 459.398 529.238 459.398 522.218C459.398 515.197 453.708 509.505 446.69 509.505C439.671 509.505 433.982 515.197 433.982 522.218C433.982 529.238 439.671 534.93 446.69 534.93Z" fill="white"/>
<path d="M441.467 521.898C443.806 521.898 445.703 520.001 445.703 517.661C445.703 515.321 443.806 513.423 441.467 513.423C439.127 513.423 437.231 515.321 437.231 517.661C437.231 520.001 439.127 521.898 441.467 521.898Z" fill="#3F3D56"/>
<path d="M454.662 548.703C454.861 549.798 454.843 550.921 454.608 552.009C454.373 553.097 453.926 554.128 453.293 555.043C452.66 555.958 451.853 556.74 450.918 557.343C449.983 557.946 448.939 558.359 447.844 558.559C446.749 558.758 445.626 558.74 444.539 558.505C443.451 558.27 442.421 557.823 441.506 557.19C440.591 556.556 439.81 555.749 439.207 554.814C438.604 553.878 438.191 552.833 437.992 551.739L437.989 551.722C437.155 547.116 440.715 545.487 445.319 544.653C449.923 543.819 453.828 544.097 454.662 548.703Z" fill="white"/>
<path d="M139.021 503.607C142.779 493.771 143.323 484.842 140.237 483.662C137.15 482.482 131.602 489.498 127.844 499.333C124.086 509.168 123.542 518.098 126.628 519.278C129.715 520.458 135.263 513.442 139.021 503.607Z" fill="#2F2E41"/>
<path d="M98.202 568.392C119.253 568.392 136.318 551.321 136.318 530.263C136.318 509.205 119.253 492.134 98.202 492.134C77.1512 492.134 60.0862 509.205 60.0862 530.263C60.0862 551.321 77.1512 568.392 98.202 568.392Z" fill="#2F2E41"/>
<path d="M92.4122 560.187H80.8328V580.941H92.4122V560.187Z" fill="#2F2E41"/>
<path d="M115.571 560.187H103.992V580.941H115.571V560.187Z" fill="#2F2E41"/>
<path d="M90.4824 584.802C95.8117 584.802 100.132 583.182 100.132 581.183C100.132 579.183 95.8117 577.563 90.4824 577.563C85.153 577.563 80.8328 579.183 80.8328 581.183C80.8328 583.182 85.153 584.802 90.4824 584.802Z" fill="#2F2E41"/>
<path d="M113.641 584.32C118.971 584.32 123.291 582.699 123.291 580.7C123.291 578.701 118.971 577.08 113.641 577.08C108.312 577.08 103.992 578.701 103.992 580.7C103.992 582.699 108.312 584.32 113.641 584.32Z" fill="#2F2E41"/>
<path d="M99.1671 533.642C106.362 533.642 112.194 527.807 112.194 520.61C112.194 513.413 106.362 507.579 99.1671 507.579C91.9725 507.579 86.1401 513.413 86.1401 520.61C86.1401 527.807 91.9725 533.642 99.1671 533.642Z" fill="white"/>
<path d="M99.1669 524.954C101.565 524.954 103.509 523.009 103.509 520.61C103.509 518.211 101.565 516.266 99.1669 516.266C96.7687 516.266 94.8246 518.211 94.8246 520.61C94.8246 523.009 96.7687 524.954 99.1669 524.954Z" fill="#3F3D56"/>
<path d="M61.2284 494.804C58.1507 481.016 67.9889 467.083 83.2024 463.685C98.416 460.287 113.244 468.71 116.322 482.498C119.399 496.286 109.317 501.371 94.1032 504.769C78.8896 508.168 64.3061 508.592 61.2284 494.804Z" fill="#E6E6E6"/>
<path d="M72.4902 520.741C73.9062 517.754 67.3447 511.675 57.8347 507.163C48.3247 502.651 39.4675 501.415 38.0515 504.401C36.6355 507.388 43.197 513.466 52.707 517.978C62.217 522.491 71.0743 523.727 72.4902 520.741Z" fill="#2F2E41"/>
<path d="M79.4796 544.019C79.4796 547.75 89.0851 555.119 99.7437 555.119C110.402 555.119 120.396 544.613 120.396 540.881C120.396 537.15 110.402 541.605 99.7437 541.605C89.0852 541.605 79.4796 540.287 79.4796 544.019Z" fill="white"/>
<path d="M280.269 532.093C301.32 532.093 318.385 515.022 318.385 493.964C318.385 472.906 301.32 455.835 280.269 455.835C259.219 455.835 242.154 472.906 242.154 493.964C242.154 515.022 259.219 532.093 280.269 532.093Z" fill="#2F2E41"/>
<path d="M274.48 523.888H262.9V544.642H274.48V523.888Z" fill="#2F2E41"/>
<path d="M297.639 523.888H286.059V544.642H297.639V523.888Z" fill="#2F2E41"/>
<path d="M272.55 548.503C277.879 548.503 282.199 546.883 282.199 544.884C282.199 542.884 277.879 541.264 272.55 541.264C267.22 541.264 262.9 542.884 262.9 544.884C262.9 546.883 267.22 548.503 272.55 548.503Z" fill="#2F2E41"/>
<path d="M295.709 548.021C301.038 548.021 305.358 546.4 305.358 544.401C305.358 542.402 301.038 540.781 295.709 540.781C290.379 540.781 286.059 542.402 286.059 544.401C286.059 546.4 290.379 548.021 295.709 548.021Z" fill="#2F2E41"/>
<path d="M243.296 458.505C240.218 444.717 250.056 430.785 265.27 427.386C280.484 423.988 295.311 432.411 298.389 446.199C301.467 459.987 291.384 465.072 276.171 468.47C260.957 471.869 246.373 472.293 243.296 458.505Z" fill="#FC6E51"/>
<path d="M321.343 477.302C329.598 469.038 334.187 460.238 331.594 457.645C329 455.053 320.206 459.651 311.952 467.915C303.697 476.179 299.108 484.979 301.701 487.572C304.294 490.164 313.088 485.566 321.343 477.302Z" fill="#2F2E41"/>
<path d="M249.547 490.228C252.14 487.636 247.551 478.835 239.296 470.571C231.042 462.307 222.247 457.709 219.654 460.301C217.061 462.894 221.65 471.694 229.905 479.958C238.159 488.222 246.953 492.82 249.547 490.228Z" fill="#2F2E41"/>
<path d="M511.995 251.972C510.73 212.876 483.962 182.016 452.207 183.044C381.535 185.139 379.809 314.784 448.041 324.097L446.596 335.584L467.67 334.902L465.485 323.532C492.933 317.463 513.142 287.418 511.995 251.972Z" fill="#FF6584"/>
<path d="M417.063 273.649L409.102 273.906C405.981 259.065 405.487 243.79 407.642 228.778L415.603 228.52C412.662 244.235 413.149 259.278 417.063 273.649Z" fill="white"/>
<path d="M468.702 323.353L444.819 324.126L444.991 329.436L468.874 328.662L468.702 323.353Z" fill="#3F3D56"/>
<path d="M399.332 526.651L396.927 525.525L456.058 324.931L458.463 326.058L399.332 526.651Z" fill="#3F3D56"/>
<path d="M560.935 285.033C575.376 248.681 563.147 209.697 533.621 197.96C467.988 171.661 414.673 289.84 473.518 325.625L467.609 335.581L487.203 343.37L489.737 332.072C517.325 337.468 547.843 317.99 560.935 285.033Z" fill="#FC6E51"/>
<path d="M465.245 267L457.843 264.058C460.904 249.204 466.545 235.001 474.511 222.097L481.914 225.04C472.947 238.274 467.391 252.261 465.245 267Z" fill="white"/>
<path d="M470.552 324.365L468.591 329.302L490.797 338.129L492.758 333.193L470.552 324.365Z" fill="#3F3D56"/>
<path d="M398.865 521.371L396.557 520.057L479.111 331.596L481.418 332.909L398.865 521.371Z" fill="#3F3D56"/>
<path d="M112.215 254.498C96.5913 218.639 60.3155 199.864 31.1904 212.563C-33.7014 240.644 12.604 361.743 79.4439 345.164L82.3468 356.372L101.675 347.945L95.4437 338.188C118.705 322.399 126.379 287.009 112.215 254.498Z" fill="#FC6E51"/>
<path d="M32.0181 309.745L24.7163 312.929C16.3319 300.292 10.2281 286.283 6.68225 271.537L13.9841 268.353C17.0593 284.042 23.0707 297.84 32.0181 309.745Z" fill="white"/>
<path d="M98.3669 336.832L76.4613 346.383L78.583 351.253L100.489 341.702L98.3669 336.832Z" fill="#3F3D56"/>
<path d="M149.049 527.164C148.707 527.249 148.346 527.194 148.044 527.013C147.743 526.831 147.526 526.537 147.441 526.195L89.7306 343.269L92.3075 342.63L150.018 525.555C150.06 525.725 150.068 525.901 150.042 526.073C150.016 526.245 149.956 526.411 149.866 526.56C149.776 526.71 149.658 526.84 149.518 526.944C149.377 527.047 149.218 527.122 149.049 527.164Z" fill="#3F3D56"/>
<path d="M164.473 585H25.5232C25.2885 585 25.0634 584.907 24.8974 584.741C24.7314 584.575 24.6382 584.35 24.6382 584.115C24.6382 583.88 24.7314 583.655 24.8974 583.489C25.0634 583.323 25.2885 583.229 25.5232 583.229H164.473C164.707 583.229 164.933 583.323 165.099 583.489C165.264 583.655 165.358 583.88 165.358 584.115C165.358 584.35 165.264 584.575 165.099 584.741C164.933 584.907 164.707 585 164.473 585Z" fill="#CCCCCC"/>
<path d="M517.599 585H378.65C378.415 585 378.19 584.907 378.024 584.741C377.858 584.575 377.765 584.35 377.765 584.115C377.765 583.88 377.858 583.655 378.024 583.489C378.19 583.323 378.415 583.229 378.65 583.229H517.599C517.834 583.229 518.059 583.323 518.225 583.489C518.391 583.655 518.484 583.88 518.484 584.115C518.484 584.35 518.391 584.575 518.225 584.741C518.059 584.907 517.834 585 517.599 585Z" fill="#CCCCCC"/>
<path d="M352.099 548.701H213.149C212.914 548.701 212.689 548.608 212.523 548.442C212.357 548.276 212.264 548.05 212.264 547.816C212.264 547.581 212.357 547.356 212.523 547.19C212.689 547.024 212.914 546.93 213.149 546.93H352.099C352.333 546.93 352.559 547.024 352.724 547.19C352.89 547.356 352.984 547.581 352.984 547.816C352.984 548.05 352.89 548.276 352.724 548.442C352.559 548.608 352.333 548.701 352.099 548.701Z" fill="#CCCCCC"/>
<path d="M278.666 501.592C285.86 501.592 291.693 495.758 291.693 488.561C291.693 481.363 285.86 475.529 278.666 475.529C271.471 475.529 265.639 481.363 265.639 488.561C265.639 495.758 271.471 501.592 278.666 501.592Z" fill="white"/>
<path d="M278.666 492.904C281.064 492.904 283.008 490.96 283.008 488.561C283.008 486.162 281.064 484.217 278.666 484.217C276.268 484.217 274.323 486.162 274.323 488.561C274.323 490.96 276.268 492.904 278.666 492.904Z" fill="#3F3D56"/>
<path d="M289.007 512.662C289.409 514.873 288.917 517.154 287.639 519.002C286.36 520.85 284.4 522.115 282.189 522.518C279.979 522.92 277.699 522.428 275.851 521.149C274.004 519.87 272.739 517.909 272.337 515.697L272.334 515.681C271.501 511.075 275.06 509.446 279.664 508.612C284.268 507.778 288.173 508.056 289.007 512.662Z" fill="white"/>
</g>
<path d="M153 135C154.657 135 156 133.657 156 132C156 130.343 154.657 129 153 129C151.343 129 150 130.343 150 132C150 133.657 151.343 135 153 135Z" fill="#FC6E51"/>
<path d="M435 98C437.209 98 439 96.2091 439 94C439 91.7909 437.209 90 435 90C432.791 90 431 91.7909 431 94C431 96.2091 432.791 98 435 98Z" fill="#F1F1F1"/>
<path d="M363 170C365.209 170 367 168.209 367 166C367 163.791 365.209 162 363 162C360.791 162 359 163.791 359 166C359 168.209 360.791 170 363 170Z" fill="#CBCBCB"/>
<path d="M344.285 46.4563C343.458 46.0962 342.793 45.4447 342.415 44.6258C342.038 43.8069 341.974 42.8778 342.238 42.0153C342.28 41.883 342.307 41.7463 342.317 41.6077C342.341 41.2126 342.238 40.8202 342.021 40.4886C341.805 40.1571 341.487 39.9041 341.116 39.7671C340.745 39.6301 340.339 39.6163 339.959 39.7279C339.579 39.8395 339.245 40.0704 339.007 40.3865C338.925 40.4987 338.857 40.6201 338.803 40.7483C338.443 41.5751 337.792 42.2406 336.973 42.6181C336.154 42.9957 335.225 43.0589 334.362 42.7958C334.23 42.7532 334.093 42.7264 333.955 42.7159C333.559 42.6919 333.167 42.7958 332.835 43.0122C332.504 43.2286 332.251 43.546 332.114 43.9174C331.977 44.2888 331.963 44.6945 332.075 45.0744C332.186 45.4542 332.417 45.788 332.733 46.0264C332.845 46.1083 332.967 46.1768 333.095 46.2303C333.922 46.5903 334.587 47.2418 334.965 48.0607C335.342 48.8796 335.406 49.8088 335.143 50.6713C335.1 50.8035 335.073 50.9403 335.063 51.0788C335.039 51.474 335.143 51.8664 335.359 52.1979C335.575 52.5294 335.893 52.7825 336.264 52.9195C336.636 53.0565 337.041 53.0702 337.421 52.9587C337.801 52.8471 338.135 52.6161 338.373 52.3C338.455 52.1878 338.524 52.0664 338.577 51.9382C338.937 51.1114 339.589 50.446 340.408 50.0684C341.226 49.6909 342.156 49.6276 343.018 49.8907C343.15 49.9333 343.287 49.9601 343.426 49.9706C343.821 49.9947 344.213 49.8908 344.545 49.6744C344.876 49.458 345.129 49.1406 345.266 48.7691C345.403 48.3977 345.417 47.992 345.305 47.6122C345.194 47.2323 344.963 46.8985 344.647 46.6601C344.535 46.5782 344.413 46.5098 344.285 46.4563Z" fill="#CBCBCB"/>
<path d="M47.285 114.456C46.4583 114.096 45.7928 113.445 45.4152 112.626C45.0377 111.807 44.9744 110.878 45.2375 110.015C45.2801 109.883 45.3069 109.746 45.3174 109.608C45.3415 109.213 45.2376 108.82 45.0212 108.489C44.8048 108.157 44.4874 107.904 44.1159 107.767C43.7445 107.63 43.3388 107.616 42.959 107.728C42.5791 107.839 42.2453 108.07 42.007 108.387C41.925 108.499 41.8565 108.62 41.803 108.748C41.443 109.575 40.7915 110.241 39.9726 110.618C39.1537 110.996 38.2246 111.059 37.3621 110.796C37.2298 110.753 37.093 110.726 36.9545 110.716C36.5593 110.692 36.1669 110.796 35.8354 111.012C35.5039 111.229 35.2509 111.546 35.1139 111.917C34.9769 112.289 34.9631 112.695 35.0747 113.074C35.1863 113.454 35.4172 113.788 35.7333 114.026C35.8455 114.108 35.9669 114.177 36.0951 114.23C36.9219 114.59 37.5873 115.242 37.9649 116.061C38.3424 116.88 38.4057 117.809 38.1426 118.671C38.1 118.804 38.0732 118.94 38.0627 119.079C38.0386 119.474 38.1425 119.866 38.3589 120.198C38.5753 120.529 38.8927 120.782 39.2642 120.919C39.6356 121.056 40.0413 121.07 40.4211 120.959C40.801 120.847 41.1348 120.616 41.3731 120.3C41.4551 120.188 41.5236 120.066 41.5771 119.938C41.9371 119.111 42.5886 118.446 43.4075 118.068C44.2264 117.691 45.1555 117.628 46.018 117.891C46.1503 117.933 46.2871 117.96 46.4256 117.971C46.8208 117.995 47.2132 117.891 47.5447 117.674C47.8762 117.458 48.1293 117.141 48.2663 116.769C48.4033 116.398 48.417 115.992 48.3055 115.612C48.1939 115.232 47.9629 114.898 47.6468 114.66C47.5346 114.578 47.4132 114.51 47.285 114.456Z" fill="#F1F1F1"/>
<path d="M200.39 56C203.703 56 206.39 53.3137 206.39 50C206.39 46.6863 203.703 44 200.39 44C197.076 44 194.39 46.6863 194.39 50C194.39 53.3137 197.076 56 200.39 56Z" fill="#F1F1F1"/>
<path d="M54.3896 12C57.7034 12 60.3896 9.31371 60.3896 6C60.3896 2.68629 57.7034 0 54.3896 0C51.0759 0 48.3896 2.68629 48.3896 6C48.3896 9.31371 51.0759 12 54.3896 12Z" fill="#CBCBCB"/>
<path d="M520.39 40C523.703 40 526.39 37.3137 526.39 34C526.39 30.6863 523.703 28 520.39 28C517.076 28 514.39 30.6863 514.39 34C514.39 37.3137 517.076 40 520.39 40Z" fill="#FC6E51"/>
<defs>
<clipPath id="clip0_33:366">
<rect width="567" height="511" fill="white" transform="translate(0 74)"/>
</clipPath>
</defs>
</svg>
