<svg width="150" height="100" viewBox="0 0 190 94" fill="none" xmlns="http://www.w3.org/2000/svg">
<g clip-path="url(#clip0)">
<path d="M65.0798 75.1364C65.9529 72.857 66.0793 70.7875 65.3622 70.514C64.6451 70.2405 63.356 71.8666 62.4829 74.1459C61.6098 76.4253 61.4833 78.4948 62.2004 78.7683C62.9175 79.0418 64.2067 77.4157 65.0798 75.1364Z" fill="#2F2E41"/>
<path d="M64.3373 82.7295C65.1207 77.9121 61.8422 73.3732 57.0144 72.5914C52.1866 71.8097 47.6378 75.0812 46.8543 79.8985C46.0709 84.7159 49.3495 89.2548 54.1773 90.0366C59.0051 90.8183 63.5539 87.5468 64.3373 82.7295Z" fill="#2F2E41"/>
<path d="M54.2506 88.2493H51.5602V93.0591H54.2506V88.2493Z" fill="#2F2E41"/>
<path d="M59.6314 88.2493H56.941V93.0591H59.6314V88.2493Z" fill="#2F2E41"/>
<path d="M53.8022 93.954C55.0404 93.954 56.0442 93.5784 56.0442 93.1151C56.0442 92.6517 55.0404 92.2761 53.8022 92.2761C52.564 92.2761 51.5602 92.6517 51.5602 93.1151C51.5602 93.5784 52.564 93.954 53.8022 93.954Z" fill="#2F2E41"/>
<path d="M59.183 93.842C60.4212 93.842 61.425 93.4664 61.425 93.0031C61.425 92.5398 60.4212 92.1642 59.183 92.1642C57.9448 92.1642 56.941 92.5398 56.941 93.0031C56.941 93.4664 57.9448 93.842 59.183 93.842Z" fill="#2F2E41"/>
<path d="M55.9089 82.0958C57.5798 82.0468 58.8945 80.6555 58.8454 78.9883C58.7963 77.321 57.402 76.0091 55.7311 76.0581C54.0603 76.1071 52.7456 77.4984 52.7947 79.1657C52.8438 80.8329 54.2381 82.1448 55.9089 82.0958Z" fill="white"/>
<path d="M55.8201 80.0837C56.3773 80.0837 56.829 79.633 56.829 79.077C56.829 78.521 56.3773 78.0703 55.8201 78.0703C55.2629 78.0703 54.8112 78.521 54.8112 79.077C54.8112 79.633 55.2629 80.0837 55.8201 80.0837Z" fill="#3F3D56"/>
<path d="M47.0054 73.0962C46.2903 69.9007 48.5761 66.6718 52.1108 65.8843C55.6456 65.0967 59.0907 67.0487 59.8058 70.2442C60.5208 73.4396 58.1782 74.6182 54.6435 75.4057C51.1088 76.1933 47.7204 76.2917 47.0054 73.0962Z" fill="#E6E6E6"/>
<path d="M49.622 79.1073C49.951 78.4151 48.4265 77.0063 46.2169 75.9606C44.0073 74.9149 41.9494 74.6283 41.6205 75.3205C41.2915 76.0126 42.816 77.4214 45.0255 78.4671C47.2351 79.5128 49.293 79.7994 49.622 79.1073Z" fill="#2F2E41"/>
<path d="M51.2458 84.5021C51.2458 85.367 53.4776 87.0748 55.954 87.0748C58.4304 87.0748 60.7524 84.6399 60.7524 83.775C60.7524 82.9102 58.4304 83.9428 55.954 83.9428C53.4776 83.9428 51.2458 83.6372 51.2458 84.5021Z" fill="white"/>
<path d="M117.878 57.3002L108.259 66.7735L86.5199 88.1782L86.0799 88.6111L83.6289 91.0241L78.4902 85.9581L78.0378 85.5129L68.6426 76.253H68.6406L65.6302 73.284L63.8515 71.5296L58.5545 66.3098L57.839 65.604L49.396 57.2817C47.7186 55.6086 46.2969 53.6984 45.1765 51.6125C45.0737 51.4258 44.977 51.237 44.8824 51.0483C42.8801 47.0649 42.0234 42.6058 42.4074 38.1659C42.7914 33.7261 44.401 29.4793 47.0575 25.8971C49.7141 22.3149 53.3136 19.5374 57.4564 17.8731C61.5992 16.2087 66.1233 15.7226 70.5262 16.4688H70.5283C70.6064 16.4811 70.6825 16.4934 70.7607 16.5098C71.5866 16.6553 72.4042 16.845 73.2097 17.0782C75.3175 17.6862 77.332 18.5788 79.1975 19.7312C79.3929 19.8522 79.5862 19.9754 79.7775 20.1005C81.1448 21.0021 82.4173 22.0395 83.5753 23.1967L83.6473 23.1249L83.7193 23.1967C84.4209 22.4969 85.1646 21.8405 85.9463 21.2311C86.1169 21.0977 86.2897 20.9664 86.4624 20.8392C89.1069 18.8935 92.1214 17.5068 95.3216 16.7638C98.5217 16.0208 101.84 15.9371 105.074 16.518C105.901 16.6634 106.719 16.8538 107.525 17.0884C107.794 17.1644 108.062 17.2464 108.327 17.3347C108.541 17.4044 108.755 17.4762 108.966 17.5542C110.73 18.1832 112.413 19.0165 113.982 20.0369C114.325 20.2606 114.664 20.4945 114.997 20.7386C117.823 22.7882 120.17 25.4245 121.876 28.466C123.582 31.5076 124.608 34.882 124.882 38.357C125.155 41.8319 124.671 45.3248 123.462 48.5951C122.253 51.8653 120.348 54.8352 117.878 57.3002Z" fill="#FC6E51"/>
<path opacity="0.15" d="M108.259 66.7735L86.5198 88.1782L86.0799 88.6111L83.6288 91.0241L78.4901 85.9581L78.0377 85.5128L68.6426 76.2529C70.152 75.9021 72.4714 76.3842 73.3206 76.8028C75.3337 77.7939 76.9891 79.421 79.033 80.3484C80.8582 81.1706 82.8974 81.3954 84.8584 80.9906C88.5227 80.2232 91.3583 77.3958 93.8588 74.6135C96.3591 71.8292 98.9151 68.8417 102.429 67.5511C104.282 66.8699 106.272 66.716 108.259 66.7735Z" fill="black"/>
<path d="M124.063 23.5928C121.072 20.5994 117.348 18.4385 113.262 17.3245C112.99 17.2485 112.721 17.1808 112.448 17.1172C111.272 16.8369 110.076 16.6455 108.872 16.5448C108.662 16.5242 108.452 16.5099 108.24 16.4996C107.184 16.4329 106.124 16.4371 105.068 16.5119C99.2824 16.8982 93.8254 19.332 89.6784 23.3753L89.6043 23.3014L89.5303 23.3753C86.8208 20.7372 83.5332 18.7647 79.9275 17.6138C79.7239 17.5481 79.5183 17.4845 79.3127 17.425C76.5358 16.6213 73.6388 16.3122 70.7544 16.5119C70.6743 16.516 70.5941 16.5222 70.5159 16.5304C65.2272 16.935 60.216 19.0534 56.2454 22.5628C55.8711 22.8911 55.503 23.2358 55.1453 23.5928C51.7839 26.9531 49.4759 31.2174 48.5031 35.8649C47.5303 40.5124 47.9348 45.342 49.6673 49.7639C49.7393 49.9568 49.8174 50.1476 49.8996 50.3384C51.1233 53.2501 52.9053 55.8952 55.1453 58.1251L63.1483 66.0082L63.7775 66.6299L81.0954 83.6868L81.5416 84.128L86.0901 88.6092L89.6043 92.0706L124.063 58.1231C128.646 53.5406 131.219 47.3314 131.219 40.8579C131.219 34.3844 128.646 28.1753 124.063 23.5928ZM123.63 57.686L89.6043 91.2047L86.5302 88.1762L82.0784 83.7915L81.6322 83.3524L64.6514 66.6238L64.0324 66.0144L55.5811 57.6881C53.4116 55.5289 51.6826 52.9701 50.4898 50.1537C50.4076 49.9629 50.3294 49.7721 50.2575 49.5813C48.5576 45.2669 48.1558 40.5514 49.1014 36.0126C50.047 31.4737 52.2988 27.3087 55.5811 24.0278C55.9637 23.6462 56.355 23.2809 56.7553 22.9321H56.7574C60.5773 19.5965 65.3687 17.5714 70.4275 17.1542C71.0999 17.0967 71.773 17.068 72.4467 17.068C72.6996 17.068 72.9505 17.0721 73.2035 17.0803C75.2699 17.1438 77.3193 17.4748 79.3003 18.0652C79.5039 18.1247 79.7075 18.1883 79.909 18.256C82.0519 18.953 84.0832 19.9543 85.94 21.2291C87.1489 22.0562 88.2785 22.9931 89.3144 24.0278L89.5324 24.2453L89.6043 24.1735L89.6763 24.2453L89.8943 24.0278C92.1981 21.7265 94.9513 19.9222 97.9831 18.7271C101.015 17.532 104.261 16.9714 107.519 17.0803C107.78 17.0885 108.041 17.1008 108.302 17.1193C108.512 17.1316 108.722 17.146 108.929 17.1665C110.255 17.2851 111.568 17.515 112.855 17.8538C113.13 17.9236 113.404 17.9995 113.675 18.0836C117.62 19.2741 121.189 21.4647 124.033 24.4417C126.876 27.4187 128.898 31.0804 129.901 35.0696C130.904 39.0587 130.853 43.2392 129.754 47.203C128.655 51.1668 126.545 54.7786 123.63 57.686Z" fill="#3F3D56"/>
<path opacity="0.15" d="M75.8519 18.0096C74.5318 19.0499 73.115 20.0102 72.2576 21.4321C71.6263 22.4826 71.3528 23.7035 71.1492 24.9099C70.7544 27.2572 70.5858 29.662 69.8126 31.9128C69.0415 34.1637 67.5364 36.314 65.3053 37.1532C63.9214 37.6723 62.3957 37.6436 60.9213 37.543C57.2838 37.2968 53.6215 36.6464 50.348 35.048C48.5179 34.1534 46.7433 32.9469 44.7097 32.8136C44.2958 32.787 43.8803 32.8097 43.4718 32.8813C45.2462 27.3543 48.9593 22.6515 53.9291 19.6365C58.899 16.6215 64.7921 15.4968 70.5262 16.4687H70.5283C70.6064 16.481 70.6825 16.4933 70.7606 16.5097C71.5866 16.6552 72.4042 16.8449 73.2097 17.0781C74.1078 17.3373 74.99 17.6484 75.8519 18.0096Z" fill="black"/>
<path d="M17.8411 83.065C18.7989 83.4009 19.8272 83.4851 20.827 83.3093C21.8268 83.1336 22.7644 82.7039 23.5495 82.0616C25.5489 80.3871 26.1757 77.6284 26.6858 75.0739L28.1945 67.5183L25.0359 69.6885C22.7645 71.2491 20.4419 72.8597 18.8692 75.1202C17.2964 77.3807 16.6099 80.4666 17.8736 82.9125L17.8411 83.065Z" fill="#E6E6E6"/>
<path d="M18.1111 92.2126C17.7915 89.8891 17.4627 87.5356 17.687 85.1872C17.8861 83.1015 18.5238 81.0643 19.8221 79.394C20.5112 78.5091 21.3497 77.7509 22.3 77.1535C22.5477 76.9974 22.7758 77.3893 22.5291 77.5446C20.8849 78.5815 19.6132 80.1126 18.8973 81.9172C18.1066 83.924 17.9796 86.1115 18.1159 88.2433C18.1983 89.5324 18.3729 90.8131 18.5489 92.0922C18.5628 92.15 18.5541 92.211 18.5247 92.2627C18.4953 92.3144 18.4473 92.3531 18.3904 92.3708C18.3323 92.3864 18.2705 92.3786 18.2182 92.349C18.1659 92.3194 18.1274 92.2704 18.1111 92.2126H18.1111Z" fill="#F2F2F2"/>
<path d="M21.1902 88.101C21.601 88.7239 22.1656 89.2308 22.8297 89.5728C23.4938 89.9148 24.235 90.0804 24.9818 90.0536C26.9012 89.9627 28.5013 88.626 29.9417 87.357L34.2022 83.6035L31.3825 83.4688C29.3547 83.372 27.2746 83.2817 25.3432 83.9056C23.4118 84.5296 21.6306 86.0313 21.2774 88.0261L21.1902 88.101Z" fill="#E6E6E6"/>
<path d="M17.2076 93.5483C18.7463 90.8316 20.5311 87.8122 23.7201 86.8472C24.6068 86.5798 25.5366 86.484 26.4594 86.565C26.7502 86.59 26.6776 87.0374 26.3873 87.0124C24.8405 86.8842 23.2968 87.2918 22.0159 88.1664C20.7833 89.0036 19.8236 90.1674 19.0113 91.4017C18.5138 92.1577 18.0681 92.9458 17.6223 93.7328C17.4799 93.9843 17.0635 93.8028 17.2076 93.5483H17.2076Z" fill="#F2F2F2"/>
<path d="M61.7069 24.4411C66.5978 24.4411 70.5627 20.4847 70.5627 15.6044C70.5627 10.724 66.5978 6.7677 61.7069 6.7677C56.816 6.7677 52.8511 10.724 52.8511 15.6044C52.8511 20.4847 56.816 24.4411 61.7069 24.4411Z" fill="#2F2E41"/>
<path d="M60.3617 22.5394H57.6713V27.3493H60.3617V22.5394Z" fill="#2F2E41"/>
<path d="M65.7425 22.5394H63.0521V27.3493H65.7425V22.5394Z" fill="#2F2E41"/>
<path d="M59.9133 28.2441C61.1515 28.2441 62.1553 27.8685 62.1553 27.4052C62.1553 26.9419 61.1515 26.5663 59.9133 26.5663C58.6751 26.5663 57.6713 26.9419 57.6713 27.4052C57.6713 27.8685 58.6751 28.2441 59.9133 28.2441Z" fill="#2F2E41"/>
<path d="M65.2941 28.1323C66.5323 28.1323 67.5361 27.7567 67.5361 27.2934C67.5361 26.8301 66.5323 26.4545 65.2941 26.4545C64.0559 26.4545 63.0521 26.8301 63.0521 27.2934C63.0521 27.7567 64.0559 28.1323 65.2941 28.1323Z" fill="#2F2E41"/>
<path d="M61.9311 16.3873C63.6027 16.3873 64.9578 15.0352 64.9578 13.3672C64.9578 11.6992 63.6027 10.347 61.9311 10.347C60.2595 10.347 58.9044 11.6992 58.9044 13.3672C58.9044 15.0352 60.2595 16.3873 61.9311 16.3873Z" fill="white"/>
<path d="M63.6745 14.6968C64.067 14.3054 64.0649 13.6684 63.6698 13.274C63.2748 12.8797 62.6364 12.8773 62.244 13.2687C61.8515 13.6601 61.8536 14.2971 62.2487 14.6915C62.6437 15.0859 63.2821 15.0882 63.6745 14.6968Z" fill="#3F3D56"/>
<path d="M53.1165 7.38648C52.4014 4.191 54.6872 0.962105 58.2219 0.174535C61.7566 -0.613036 65.2018 1.33897 65.9168 4.53445C66.6319 7.72993 64.2893 8.90848 60.7546 9.69604C57.2199 10.4836 53.8315 10.582 53.1165 7.38648Z" fill="#E6E6E6"/>
<path d="M132.92 75.8133C133.512 75.326 132.731 73.4047 131.175 71.5221C129.619 69.6396 127.878 68.5085 127.285 68.9959C126.693 69.4833 127.474 71.4046 129.03 73.2871C130.586 75.1697 132.328 76.3007 132.92 75.8133Z" fill="#2F2E41"/>
<path d="M139.231 89.9466C144.058 89.1648 147.337 84.6258 146.553 79.8085C145.77 74.9911 141.221 71.7196 136.393 72.5014C131.566 73.2831 128.287 77.8221 129.07 82.6395C129.854 87.4568 134.403 90.7283 139.231 89.9466Z" fill="#2F2E41"/>
<path d="M141.847 88.1592H139.157V92.969H141.847V88.1592Z" fill="#2F2E41"/>
<path d="M136.467 88.1592H133.776V92.969H136.467V88.1592Z" fill="#2F2E41"/>
<path d="M139.606 93.8638C140.844 93.8638 141.848 93.4882 141.848 93.0248C141.848 92.5615 140.844 92.1859 139.606 92.1859C138.367 92.1859 137.364 92.5615 137.364 93.0248C137.364 93.4882 138.367 93.8638 139.606 93.8638Z" fill="#2F2E41"/>
<path d="M134.225 93.7521C135.463 93.7521 136.467 93.3765 136.467 92.9132C136.467 92.4498 135.463 92.0742 134.225 92.0742C132.987 92.0742 131.983 92.4498 131.983 92.9132C131.983 93.3765 132.987 93.7521 134.225 93.7521Z" fill="#2F2E41"/>
<path d="M140.912 76.5092C138.121 74.2072 136.569 72.0964 138.659 69.5724C140.749 67.0485 144.707 66.8685 147.499 69.1706C150.291 71.4726 150.859 75.3849 148.769 77.9088C146.679 80.4328 143.704 78.8113 140.912 76.5092Z" fill="#FC6E51"/>
<path d="M134.839 79.6574C136.51 79.6084 137.825 78.2172 137.775 76.5499C137.726 74.8826 136.332 73.5708 134.661 73.6198C132.99 73.6688 131.676 75.0601 131.725 76.7273C131.774 78.3946 133.168 79.7064 134.839 79.6574Z" fill="white"/>
<path d="M133.686 76.8973C134.243 76.8973 134.695 76.4466 134.695 75.8906C134.695 75.3346 134.243 74.8839 133.686 74.8839C133.129 74.8839 132.677 75.3346 132.677 75.8906C132.677 76.4466 133.129 76.8973 133.686 76.8973Z" fill="#3F3D56"/>
<path d="M130.175 79.1261C129.562 79.7376 129.129 81.7205 129.991 82.5807C130.853 83.4409 133.387 82.5257 134 81.9142C134.613 81.3026 133.073 81.2263 132.211 80.366C131.349 79.5058 130.788 78.5145 130.175 79.1261Z" fill="white"/>
<path d="M146.218 93.041C146.935 92.7675 146.809 90.698 145.936 88.4186C145.063 86.1392 143.774 84.5131 143.056 84.7866C142.339 85.0601 142.466 87.1297 143.339 89.409C144.212 91.6884 145.501 93.3145 146.218 93.041Z" fill="#2F2E41"/>
<path d="M189.794 94H0.205628C0.151092 94 0.0987895 93.9784 0.0602268 93.9399C0.0216641 93.9014 0 93.8492 0 93.7948C0 93.7404 0.0216641 93.6882 0.0602268 93.6497C0.0987895 93.6112 0.151092 93.5896 0.205628 93.5896H189.794C189.849 93.5896 189.901 93.6112 189.94 93.6497C189.978 93.6882 190 93.7404 190 93.7948C190 93.8492 189.978 93.9014 189.94 93.9399C189.901 93.9784 189.849 94 189.794 94Z" fill="#CCCCCC"/>
</g>
<defs>
<clipPath id="clip0">
<rect width="190" height="94" fill="white"/>
</clipPath>
</defs>
</svg>
